<svg width="40" height="40" viewBox="0 0 40 40" fill="none" xmlns="http://www.w3.org/2000/svg">
<g clip-path="url(#clip0_5_99)">
<path d="M39.6117 19.442L20.8817 0L18.73 1.11667L23.1061 5.65867C22.0382 5.41176 20.9251 5.28609 19.8054 5.286C15.8279 5.286 12.1203 6.86067 9.36543 9.72067C6.70776 12.4793 5.2445 16.1333 5.2445 20C5.2439 20.9888 5.34104 21.9762 5.53515 22.9547L2.15084 19.442L0 20.558L18.73 40L20.8817 38.8833L16.5055 34.3413C17.5732 34.5882 18.686 34.7138 19.8054 34.714C23.7828 34.714 27.4914 33.1387 30.2508 30.2793C32.9084 27.5207 34.3717 23.87 34.3717 20C34.3724 19.0112 34.275 18.0237 34.0801 17.0453L37.4644 20.558L39.6117 19.442ZM10.4454 27.8847C9.73923 26.9266 9.17848 25.9145 8.77322 24.8667L15.8252 17.546L18.1141 19.922L10.4454 27.8847ZM17.4393 15.8667L24.6856 8.34667C25.7339 8.8645 26.6686 9.4964 27.4578 10.2207L19.7273 18.244L17.4393 15.8667ZM29.0346 11.9333C29.7976 12.9355 30.3988 13.9996 30.8257 15.104L23.7637 22.4373L21.3449 19.9193L29.0346 11.9333ZM11.5163 10.8373C13.7643 8.504 16.7081 7.21933 19.8054 7.21933C20.6433 7.22029 21.4763 7.31424 22.2759 7.498L8.05839 22.256C7.37808 18.2333 8.52889 13.9387 11.5163 10.8373ZM28.0954 29.1627C25.8474 31.496 22.9036 32.7807 19.8054 32.7807C16.9197 32.7807 14.1685 31.6653 11.9886 29.6273L19.7273 21.594L21.6265 23.5647C22.156 24.1147 22.9354 24.4313 23.7637 24.4313C24.5921 24.4313 25.3723 24.116 25.9018 23.5647L31.5469 17.7053C32.2445 21.7393 31.0918 26.0513 28.0954 29.1627Z" fill="white"/>
</g>
<defs>
<clipPath id="clip0_5_99">
<rect width="39.6117" height="40" fill="white"/>
</clipPath>
</defs>
</svg>
