<svg width="43" height="42" viewBox="0 0 43 42" fill="none" xmlns="http://www.w3.org/2000/svg">
<path d="M0 15.2C0 9.8795 0 7.21925 1.06009 5.18709C1.99257 3.39955 3.48049 1.94624 5.31059 1.03544C7.39114 0 10.1147 0 15.5619 0H27.4381C32.8853 0 35.6089 0 37.6894 1.03544C39.5195 1.94624 41.0074 3.39955 41.9399 5.18709C43 7.21925 43 9.8795 43 15.2V26.8C43 32.1205 43 34.7807 41.9399 36.8129C41.0074 38.6004 39.5195 40.0538 37.6894 40.9646C35.6089 42 32.8853 42 27.4381 42H15.5619C10.1147 42 7.39114 42 5.31059 40.9646C3.48049 40.0538 1.99257 38.6004 1.06009 36.8129C0 34.7807 0 32.1205 0 26.8V15.2Z" fill="#330000"/>
<path d="M20.8372 26.3944H14.1738L12.8181 30.6134C12.7804 30.7702 12.6327 30.8812 12.4719 30.8735H9.09698C8.90451 30.8735 8.8372 30.7676 8.89505 30.5556L14.6642 13.9107C14.7219 13.7374 14.7796 13.5399 14.8373 13.3183C14.9128 12.9328 14.9514 12.5409 14.9527 12.148C14.9362 12.0319 15.0406 11.9294 15.1546 11.9457H19.741C19.8754 11.9457 19.9523 11.9939 19.9718 12.0902L26.5199 30.5845C26.5775 30.7773 26.5198 30.8737 26.3468 30.8735H22.5968C22.4652 30.8881 22.3397 30.8 22.3083 30.6712L20.8372 26.3944ZM15.2123 22.7533H19.7699C19.0211 20.2541 18.176 17.7876 17.4911 15.2689C16.7522 17.7919 15.9459 20.3047 15.2123 22.7533Z" fill="#FF9A00"/>
<path d="M30.4137 15.0087C30.1195 15.0206 29.8261 14.9701 29.5527 14.8605C29.2793 14.751 29.0321 14.5848 28.8272 14.373C28.6228 14.152 28.4641 13.8927 28.3602 13.61C28.2562 13.3273 28.209 13.0268 28.2214 12.7258C28.2109 12.4278 28.2633 12.1309 28.3751 11.8546C28.4869 11.5782 28.6557 11.3286 28.8704 11.122C29.083 10.9176 29.334 10.7574 29.6088 10.6508C29.8836 10.5441 30.1767 10.4931 30.4713 10.5007C31.1637 10.5007 31.707 10.7078 32.1012 11.122C32.3001 11.3373 32.4548 11.5897 32.5563 11.8649C32.6577 12.1401 32.704 12.4327 32.6925 12.7258C32.7045 13.028 32.6558 13.3295 32.5493 13.6125C32.4428 13.8954 32.2806 14.1541 32.0723 14.373C31.8546 14.5879 31.5949 14.7554 31.3094 14.8648C31.024 14.9742 30.719 15.0232 30.4137 15.0087ZM28.4233 30.5844V16.7714C28.4233 16.5981 28.4999 16.5114 28.654 16.5114H32.2021C32.3558 16.5114 32.4328 16.5981 32.4329 16.7714V30.5844C32.4329 30.7772 32.356 30.8736 32.2021 30.8734H28.6829C28.5099 30.8734 28.4233 30.7771 28.4233 30.5844Z" fill="#FF9A00"/>
</svg>
