<svg width="29" height="42" viewBox="0 0 29 42" fill="none" xmlns="http://www.w3.org/2000/svg">
<path fill-rule="evenodd" clip-rule="evenodd" d="M14.5 21C14.5 17.134 17.7459 14 21.75 14C25.7541 14 29 17.134 29 21C29 24.866 25.7541 28 21.75 28C17.7459 28 14.5 24.866 14.5 21Z" fill="#1ABCFE"/>
<path fill-rule="evenodd" clip-rule="evenodd" d="M0 35C0 31.134 3.24594 28 7.25 28H14.5V35C14.5 38.866 11.2541 42 7.25 42C3.24594 42 0 38.866 0 35Z" fill="#0ACF83"/>
<path fill-rule="evenodd" clip-rule="evenodd" d="M14.5 0V14H21.75C25.7541 14 29 10.866 29 7C29 3.13401 25.7541 0 21.75 0H14.5Z" fill="#FF7262"/>
<path fill-rule="evenodd" clip-rule="evenodd" d="M0 7C0 10.866 3.24594 14 7.25 14H14.5V0H7.25C3.24594 0 0 3.13401 0 7Z" fill="#F24E1E"/>
<path fill-rule="evenodd" clip-rule="evenodd" d="M0 21C0 24.866 3.24594 28 7.25 28H14.5V14H7.25C3.24594 14 0 17.134 0 21Z" fill="#A259FF"/>
</svg>
