<svg width="42" height="42" viewBox="0 0 42 42" fill="none" xmlns="http://www.w3.org/2000/svg">
<path d="M0.87804 22.5821C-0.292681 21.4386 -0.292679 19.5846 0.878042 18.4411L18.8802 0.85762C20.0509 -0.285875 21.9491 -0.285873 23.1198 0.857622L41.122 18.4411C42.2927 19.5846 42.2927 21.4386 41.122 22.5821L23.1198 40.1656C21.9491 41.3091 20.0509 41.3091 18.8802 40.1656L0.87804 22.5821Z" fill="#EE513B"/>
<path d="M15.2238 4.4856L13.4008 6.26621L18.1091 10.8651C17.9187 11.2642 17.8124 11.7093 17.8124 12.1787C17.8124 13.5114 18.6696 14.6485 19.8749 15.0926V26.3426C18.6696 26.7867 17.8124 27.9238 17.8124 29.2565C17.8124 30.9759 19.2394 32.3698 20.9999 32.3698C22.7603 32.3698 24.1874 30.9759 24.1874 29.2565C24.1874 28.0483 23.4827 27.0008 22.453 26.4847V15.1079L26.9538 19.504C26.7726 19.895 26.6717 20.3291 26.6717 20.7863C26.6717 22.5057 28.0988 23.8996 29.8592 23.8996C31.6196 23.8996 33.0467 22.5057 33.0467 20.7863C33.0467 19.0668 31.6196 17.6729 29.8592 17.6729C29.5171 17.6729 29.1876 17.7255 28.8787 17.823L24.045 13.1016C24.1375 12.81 24.1874 12.5 24.1874 12.1787C24.1874 10.4592 22.7603 9.06534 20.9999 9.06534C20.6709 9.06534 20.3535 9.11402 20.055 9.20441L15.2238 4.4856Z" fill="white"/>
</svg>
