<svg width="42" height="41" viewBox="0 0 42 41" fill="none" xmlns="http://www.w3.org/2000/svg">
<path d="M21.0001 0C9.40355 0 0 9.18325 0 20.5117C0 29.5745 6.01715 37.2631 14.3612 39.9753C15.4107 40.1652 15.7961 39.5304 15.7961 38.9886C15.7961 38.4995 15.7765 36.8836 15.7676 35.1697C9.92516 36.4105 8.69238 32.7496 8.69238 32.7496C7.73711 30.3787 6.36072 29.7484 6.36072 29.7484C4.45547 28.4752 6.50433 28.5013 6.50433 28.5013C8.61315 28.6461 9.72356 30.6151 9.72356 30.6151C11.5965 33.751 14.6362 32.8443 15.8346 32.3204C16.023 30.9945 16.5673 30.0897 17.1678 29.5775C12.5035 29.0587 7.60008 27.2999 7.60008 19.4405C7.60008 17.2012 8.42046 15.3713 9.76391 13.9349C9.54585 13.4182 8.8271 11.332 9.96732 8.50663C9.96732 8.50663 11.7308 7.95533 15.7438 10.6092C17.4188 10.1546 19.2154 9.92679 21.0001 9.91907C22.7848 9.92679 24.5826 10.1546 26.2609 10.6092C30.2692 7.95533 32.0302 8.50663 32.0302 8.50663C33.1732 11.332 32.4541 13.4182 32.2361 13.9349C33.5825 15.3713 34.3973 17.201 34.3973 19.4405C34.3973 27.3186 29.4846 29.0534 24.8084 29.5611C25.5616 30.1977 26.2328 31.446 26.2328 33.3596C26.2328 36.104 26.2084 38.3129 26.2084 38.9886C26.2084 39.5344 26.5864 40.174 27.651 39.9726C35.9904 37.2573 42 29.5714 42 20.5117C42 9.18325 32.5978 0 21.0001 0Z" fill="white"/>
</svg>
