<svg width="42" height="42" viewBox="0 0 42 42" fill="none" xmlns="http://www.w3.org/2000/svg">
<rect width="42" height="41.0233" fill="#FFCA28"/>
<path d="M25.5 34.1191L28.5923 32.1205C28.8346 32.8642 30.3692 34.6303 32.3077 34.6303C34.2462 34.6303 35.1462 33.5962 35.1462 32.9106C35.1462 31.0423 33.1668 30.3836 32.2161 30.0672C32.0611 30.0156 31.9334 29.9732 31.8462 29.936C31.8014 29.917 31.7337 29.8917 31.6468 29.8593C30.5895 29.4647 26.6885 28.009 26.6885 23.7893C26.6885 19.1414 31.2808 18.6069 32.3192 18.6069C32.9986 18.6069 36.2654 18.6883 37.8923 21.6745L34.8923 23.7196C34.2346 22.4182 33.1419 21.9882 32.4692 21.9882C30.8077 21.9882 30.4615 23.178 30.4615 23.7196C30.4615 25.2392 32.2667 25.9203 33.791 26.4954C34.1898 26.6459 34.5693 26.7891 34.8923 26.9382C36.5538 27.7051 39 28.96 39 32.9106C39 34.8894 37.3008 38.093 33.0231 38.093C27.2769 38.093 25.7538 34.7233 25.5 34.1191Z" fill="#3E3E3E"/>
<path d="M10.5 34.516L13.723 32.5184C13.9756 33.2617 14.9569 34.6321 16.3808 34.6321C17.8047 34.6321 18.5335 33.2036 18.5335 32.5184V19.0465H22.4973V32.5184C22.5614 34.3766 21.5063 38.093 16.8498 38.093C12.5685 38.093 10.7886 35.6077 10.5 34.516Z" fill="#3E3E3E"/>
</svg>
