<svg width="20" height="42" viewBox="0 0 20 42" fill="none" xmlns="http://www.w3.org/2000/svg">
<path d="M9.79418 0.114746L10.9744 2.21984C11.2397 2.60831 11.5272 2.95216 11.8658 3.27239C12.8584 4.20331 13.7837 5.19687 14.6352 6.24629C16.635 8.73985 17.9838 11.509 18.947 14.5039C19.5247 16.3334 19.8384 18.2101 19.8619 20.1079C19.9586 25.7814 17.9105 30.653 13.7812 34.7018C13.1095 35.3438 12.3839 35.9329 11.6115 36.463C11.2024 36.463 11.0089 36.1651 10.8403 35.8908C10.5333 35.3822 10.329 34.8236 10.2378 34.2438C10.0927 33.5574 9.99733 32.871 10.0443 32.1623V31.8421C10.0112 31.7738 9.65046 0.276172 9.79418 0.114746V0.114746Z" fill="#599636"/>
<path d="M9.79415 0.0451506C9.74578 -0.0467176 9.69741 0.0228398 9.64904 0.0674615C9.67253 0.526803 9.50393 0.936272 9.23998 1.32737C8.94976 1.71584 8.56557 2.01376 8.18 2.33398C6.03795 4.09523 4.35194 6.22263 3.00175 8.60202C1.20519 11.8043 0.279265 15.2362 0.0166897 18.8493C-0.103542 20.1525 0.450629 24.7511 0.883186 26.078C2.06339 29.6005 4.18334 32.5521 6.92932 35.1139C7.60372 35.7307 8.32511 36.3029 9.07137 36.8528C9.28834 36.8528 9.31184 36.6691 9.36159 36.5326C9.45671 36.2405 9.52923 35.9423 9.57856 35.6401L10.0622 32.2095L9.79415 0.0451506Z" fill="#6CAC48"/>
<path d="M10.9743 37.8569C11.0226 37.3319 11.288 36.8962 11.5768 36.4618C11.2866 36.3476 11.071 36.1206 10.9024 35.8673C10.757 35.6275 10.6367 35.3747 10.5431 35.1127C10.2059 34.152 10.134 33.1441 10.0373 32.1624V31.5679C9.91706 31.6597 9.89218 32.4367 9.89218 32.5522C9.82186 33.5897 9.67687 34.6215 9.45824 35.6402C9.38638 36.0523 9.33801 36.4631 9.07129 36.8293C9.07129 36.8752 9.07129 36.9211 9.09478 36.9894C9.52872 38.202 9.64757 39.437 9.72082 40.6956V41.1549C9.72082 41.7035 9.69732 41.588 10.1769 41.7718C10.3703 41.84 10.5859 41.8636 10.7794 42.0001C10.9245 42.0001 10.948 41.8859 10.948 41.7941L10.8761 41.0394V38.9344C10.8527 38.5669 10.9245 38.202 10.9729 37.8582L10.9743 37.8569Z" fill="#C2BFBF"/>
</svg>
