<svg width="40" height="42" viewBox="0 0 40 42" fill="none" xmlns="http://www.w3.org/2000/svg">
<path d="M21.8038 0.448081C20.7118 -0.150706 19.2882 -0.148013 18.1953 0.448081C12.7213 3.3934 7.24741 6.33962 1.77255 9.28359C0.707217 9.83002 -0.0113251 10.9455 0.000135121 12.1033V29.8992C-0.00755738 31.0795 0.748035 32.2058 1.84084 32.7447C3.41341 33.5604 4.94123 34.459 6.54221 35.2203C8.39155 36.1063 10.7053 36.3023 12.5772 35.3783C14.0967 34.6124 14.7716 32.9093 14.7697 31.344C14.782 25.4709 14.7716 19.5976 14.7744 13.7245C14.8106 13.4634 14.6096 13.1845 14.3176 13.1907C13.6181 13.18 12.9176 13.1845 12.218 13.1889C11.9537 13.1646 11.6957 13.3786 11.7157 13.6377C11.7062 19.473 11.7175 25.3101 11.71 31.1463C11.7252 31.9536 11.1659 32.7295 10.3679 33.0022C8.52492 33.6319 3.26458 30.3018 3.26458 30.3018C3.07154 30.2147 2.94895 30.0105 2.96787 29.8078C2.96787 23.9364 2.96881 18.0649 2.96787 12.1945C2.94134 11.9579 3.09095 11.7447 3.31388 11.6481C8.76974 8.7201 14.2228 5.78481 19.6786 2.85504C19.8681 2.73173 20.1323 2.7321 20.3214 2.85594C25.7772 5.78481 31.2312 8.71741 36.688 11.6455C36.9117 11.742 37.0549 11.9588 37.0321 12.1945C37.0312 18.0649 37.034 23.9364 37.0303 29.8069C37.0464 30.0147 36.9364 30.216 36.7373 30.3072C31.3324 33.2193 25.8659 36.0375 20.51 39.0341C20.2763 39.1649 20.0116 39.3129 19.7498 39.1689C18.3413 38.4093 16.9499 37.6201 15.546 36.8532C15.3935 36.7603 15.1991 36.7205 15.0399 36.8243C14.4104 37.1477 13.8185 37.4097 13.0958 37.6886C12.0806 38.0804 12.2428 38.2407 13.1582 38.7607C14.8 39.6666 16.4445 40.5689 18.0861 41.4757C19.1669 42.1332 20.619 42.1801 21.7346 41.5723C27.2094 38.6307 32.6824 35.6855 38.1582 32.744C39.2482 32.202 40.0076 31.0803 39.9999 29.899V12.1033C40.0104 10.969 39.3193 9.8734 38.2862 9.31889C32.7933 6.35921 27.2977 3.40596 21.8038 0.448081Z" fill="#8CC84B"/>
<path d="M30.0644 13.8094C27.9157 12.6885 25.3594 12.6289 22.9715 12.7753C21.2465 12.9415 19.4322 13.4056 18.1753 14.6113C16.8863 15.8234 16.6057 17.7805 17.218 19.3628C17.6568 20.4808 18.7612 21.2079 19.9033 21.5925C21.3746 22.0989 22.9198 22.2554 24.4655 22.4121C25.8754 22.5549 27.2857 22.6978 28.6408 23.1063C29.1943 23.2852 29.8389 23.5588 30.0085 24.1459C30.165 24.8413 29.9934 25.6496 29.4143 26.1328C27.5748 27.5523 22.4583 27.3348 20.6409 26.2176C19.9061 25.7416 19.5895 24.899 19.4608 24.0962C19.4465 23.846 19.2399 23.6165 18.9612 23.6355C18.2636 23.6274 17.5659 23.6292 16.8682 23.6346C16.6247 23.6147 16.3717 23.7836 16.3583 24.0258C16.215 27.7033 19.679 29.3065 22.929 29.6595C24.7859 29.832 26.6834 29.8221 28.5119 29.4336C29.8864 29.1285 31.2644 28.5667 32.2106 27.5344C33.3774 26.28 33.6067 24.4123 33.0835 22.8497C32.6835 21.6839 31.5403 20.936 30.3716 20.5512C28.7825 20.0199 26.899 19.7344 25.4597 19.6007C23.3675 19.4064 20.8813 19.4858 20.2892 18.1453C20.0531 17.4435 20.254 16.572 20.9156 16.1403C22.6659 14.9827 26.2281 15.1365 28.0408 16.0012C28.8731 16.4076 29.3554 17.2422 29.5545 18.0848C29.5914 18.3323 29.7622 18.5905 30.0561 18.5797C30.7489 18.5932 31.4418 18.5833 32.1346 18.5842C32.3726 18.6005 32.6332 18.4695 32.6797 18.2319C32.6503 16.4709 31.728 14.6683 30.0644 13.8094Z" fill="#8CC84B"/>
</svg>
