<svg width="42" height="42" viewBox="0 0 42 42" fill="none" xmlns="http://www.w3.org/2000/svg">
<path fill-rule="evenodd" clip-rule="evenodd" d="M16.5246 0C13.229 0 10.5574 2.52664 10.5574 5.64341V9.55038H20.8852V10.6357H5.96721C2.67161 10.6357 0 13.1623 0 16.2791L6.52088e-07 24.7442C6.52088e-07 27.8609 2.67161 30.3876 5.96721 30.3876H9.40983V25.6124C9.40983 22.4956 12.0814 19.969 15.377 19.969H26.3934C29.182 19.969 31.4426 17.8311 31.4426 15.1938V5.64341C31.4426 2.52664 28.771 0 25.4754 0H16.5246ZM15.1475 6.94573C16.2883 6.94573 17.2131 6.07113 17.2131 4.99225C17.2131 3.91336 16.2883 3.03876 15.1475 3.03876C14.0067 3.03876 13.082 3.91336 13.082 4.99225C13.082 6.07113 14.0067 6.94573 15.1475 6.94573Z" fill="url(#paint0_linear_37_225)"/>
<path fill-rule="evenodd" clip-rule="evenodd" d="M25.4754 41.0233C28.771 41.0233 31.4426 38.4967 31.4426 35.3799V31.4729L21.1147 31.4729L21.1147 30.3877L36.0327 30.3877C39.3283 30.3877 41.9999 27.861 41.9999 24.7443V16.2792C41.9999 13.1624 39.3283 10.6357 36.0327 10.6357L32.5901 10.6357V15.4109C32.5901 18.5277 29.9185 21.0543 26.6229 21.0543L15.6065 21.0543C12.8179 21.0543 10.5573 23.1923 10.5573 25.8295L10.5573 35.3799C10.5573 38.4967 13.229 41.0233 16.5246 41.0233H25.4754ZM26.8524 34.0776C25.7116 34.0776 24.7868 34.9522 24.7868 36.0311C24.7868 37.11 25.7116 37.9846 26.8524 37.9846C27.9932 37.9846 28.918 37.11 28.918 36.0311C28.918 34.9522 27.9932 34.0776 26.8524 34.0776Z" fill="url(#paint1_linear_37_225)"/>
<defs>
<linearGradient id="paint0_linear_37_225" x1="15.7213" y1="0" x2="15.7213" y2="30.3876" gradientUnits="userSpaceOnUse">
<stop stop-color="#327EBD"/>
<stop offset="1" stop-color="#1565A7"/>
</linearGradient>
<linearGradient id="paint1_linear_37_225" x1="26.2786" y1="10.6357" x2="26.2786" y2="41.0233" gradientUnits="userSpaceOnUse">
<stop stop-color="#FFDA4B"/>
<stop offset="1" stop-color="#F9C600"/>
</linearGradient>
</defs>
</svg>
