<svg width="42" height="35" viewBox="0 0 42 35" fill="none" xmlns="http://www.w3.org/2000/svg">
<path d="M24.7504 17.0309C24.7504 15.1482 23.0714 13.6218 21 13.6218C18.9288 13.6218 17.2496 15.1482 17.2496 17.0309C17.2496 18.9137 18.9288 20.4401 21 20.4401C23.0714 20.4401 24.7504 18.9137 24.7504 17.0309Z" fill="#53C1DE"/>
<path fill-rule="evenodd" clip-rule="evenodd" d="M33.1805 10.7017C33.9726 7.77628 34.9681 2.35132 31.4585 0.512086C27.9655 -1.31913 23.4198 2.18981 21.0195 4.29605C18.6262 2.2108 13.9529 -1.28314 10.4463 0.561928C6.95451 2.39928 8.0313 7.73429 8.84086 10.6781C5.58363 11.519 0 13.3303 0 17.0309C0 20.721 5.57783 22.6915 8.81577 23.5317C8.00321 26.4918 6.98034 31.7506 10.4766 33.5838C13.9962 35.4285 18.655 32.0178 21.0775 29.8885C23.4932 32.0071 27.9952 35.4402 31.489 33.6019C34.9939 31.7577 34.081 26.4054 33.2714 23.4445C36.4102 22.6026 42 20.6749 42 17.0309C42 13.3658 36.3865 11.5399 33.1805 10.7017ZM32.7827 21.8754C32.2511 20.3458 31.5336 18.7193 30.6559 17.039C31.4937 15.3984 32.1833 13.7928 32.7 12.273C35.0502 12.8924 40.2059 14.3079 40.2059 17.0309C40.2059 19.7793 35.2585 21.2083 32.7827 21.8754ZM30.5899 32.1904C27.9833 33.5619 24.111 30.2789 22.327 28.7187C23.5105 27.542 24.6932 26.1742 25.8475 24.6552C27.878 24.4915 29.7963 24.2237 31.5359 23.8583C32.1057 25.9526 33.2083 30.8126 30.5899 32.1904ZM11.3731 32.1708C8.766 30.8044 9.95761 26.1117 10.5554 23.9313C12.2757 24.2771 14.18 24.526 16.2153 24.676C17.3773 26.1623 18.5942 27.5285 19.8206 28.7249C18.3054 30.0573 13.9923 33.5436 11.3731 32.1708ZM1.79408 17.0309C1.79408 14.2721 6.91889 12.8669 9.32266 12.249C9.84832 13.8029 10.5377 15.4276 11.3697 17.0706C10.527 18.738 9.82768 20.3886 9.29719 21.9607C7.00517 21.3644 1.79408 19.7914 1.79408 17.0309ZM11.3452 1.9734C13.9629 0.59609 18.0246 3.9504 19.7622 5.46017C18.5422 6.65115 17.3364 8.00703 16.1845 9.48473C14.2092 9.65116 12.3182 9.91845 10.5799 10.2765C9.92775 7.90219 8.73028 3.34922 11.3452 1.9734ZM27.131 11.2574C28.4711 11.4112 29.755 11.6156 30.9606 11.8658C30.5987 12.9203 30.1476 14.0229 29.6163 15.1533C28.8462 13.8249 28.0194 12.5234 27.131 11.2574ZM21.0201 6.62564C21.8476 7.44052 22.6764 8.35052 23.4917 9.33774C21.8379 9.26671 20.1814 9.26637 18.5277 9.33673C19.3437 8.35863 20.1795 7.44998 21.0201 6.62564ZM12.3991 15.1521C11.8766 14.0256 11.4296 12.9181 11.0645 11.8486C12.2629 11.6048 13.5408 11.4056 14.8722 11.2544C13.9813 12.5175 13.1559 13.8186 12.3991 15.1521ZM14.9105 22.9238C13.535 22.7842 12.2378 22.5951 11.0398 22.3581C11.4106 21.2697 11.8675 20.1383 12.4011 18.9877C13.1684 20.3349 14.0063 21.6487 14.9105 22.9238ZM21.0697 27.5513C20.2193 26.7172 19.3712 25.7947 18.5427 24.8024C20.206 24.8618 21.8724 24.8619 23.5354 24.7945C22.7175 25.8048 21.8916 26.7287 21.0697 27.5513ZM29.6334 18.9291C30.1948 20.0922 30.668 21.2175 31.0439 22.2875C29.826 22.5401 28.5113 22.7435 27.1259 22.8945C28.021 21.6047 28.8608 20.2829 29.6334 18.9291ZM24.8462 23.0922C22.3022 23.2574 19.7422 23.2557 17.1973 23.1057C15.7512 21.1857 14.464 19.1664 13.3528 17.0701C14.4586 14.9781 15.7365 12.9628 17.1758 11.0457C19.7226 10.8707 22.285 10.8703 24.8317 11.0467C26.2585 12.9637 27.5345 14.9738 28.6659 17.0469C27.5479 19.1379 26.2633 21.1572 24.8462 23.0922ZM30.5624 1.92491C33.1808 3.2977 32.0153 8.17328 31.4433 10.2934C29.7009 9.92791 27.8087 9.65589 25.8276 9.48693C24.6735 7.99318 23.4777 6.63493 22.2773 5.45933C24.0373 3.91704 27.9693 0.56554 30.5624 1.92491Z" fill="#53C1DE"/>
</svg>
