<svg width="42" height="31" viewBox="0 0 42 31" fill="none" xmlns="http://www.w3.org/2000/svg">
<path d="M36.1653 17.6856C34.7 17.6931 33.4266 18.0378 32.3602 18.5473C31.969 17.7905 31.5778 17.1161 31.5087 16.6216C31.432 16.0446 31.3399 15.6924 31.432 15.0031C31.5241 14.3137 31.9383 13.3321 31.9306 13.2572C31.923 13.1823 31.8386 12.8301 30.9947 12.8226C30.1509 12.8151 29.4221 12.98 29.3377 13.1973C29.2533 13.4145 29.0922 13.9091 28.9848 14.4186C28.839 15.1679 27.2971 17.8429 26.4149 19.2441C26.131 18.6972 25.8855 18.2176 25.8318 17.8355C25.7551 17.2585 25.6631 16.9063 25.7551 16.217C25.8472 15.5276 26.2614 14.546 26.2538 14.4711C26.2461 14.3961 26.1617 14.044 25.3178 14.0365C24.474 14.029 23.7452 14.1938 23.6608 14.4111C23.5764 14.6284 23.4844 15.138 23.3079 15.6325C23.1315 16.127 21.0832 20.5929 20.5462 21.7468C20.27 22.3388 20.0322 22.8108 19.8634 23.133C19.8634 23.133 19.8558 23.1555 19.8327 23.193C19.687 23.4702 19.6026 23.6201 19.6026 23.6201C19.6026 23.6201 19.6026 23.6201 19.6026 23.6276C19.4875 23.8299 19.3648 24.0172 19.3034 24.0172C19.2574 24.0172 19.173 23.4777 19.3188 22.7434C19.6256 21.1923 20.3544 18.7796 20.3467 18.6972C20.3467 18.6522 20.4848 18.2326 19.8711 18.0153C19.2727 17.798 19.0579 18.1577 19.0042 18.1577C18.9505 18.1577 18.9122 18.285 18.9122 18.285C18.9122 18.285 19.5796 15.5725 17.6387 15.5725C16.4266 15.5725 14.7542 16.8688 13.9257 18.0378C13.4041 18.315 12.2917 18.907 11.1026 19.5439C10.65 19.7911 10.182 20.0384 9.74477 20.2707C9.71408 20.2407 9.6834 20.2033 9.65271 20.1733C7.30524 17.7231 2.9632 15.9922 3.14731 12.7027C3.21635 11.5038 3.63828 8.35673 11.4862 4.53528C17.9456 1.42566 23.0854 2.28736 23.9753 4.19809C25.2488 6.92556 21.2213 11.9909 14.5471 12.7252C12.0002 13.0024 10.6653 12.0433 10.3278 11.6837C9.97491 11.309 9.92121 11.2865 9.7908 11.3615C9.576 11.4738 9.71408 11.811 9.7908 12.0059C9.99026 12.5154 10.8111 13.4145 12.1996 13.8566C13.4271 14.2463 16.4113 14.4636 20.0245 13.0998C24.0674 11.5713 27.228 7.32269 26.2998 3.76349C25.3715 0.151837 19.2344 -1.03956 13.4271 0.976074C9.97491 2.17496 6.23124 4.06321 3.53856 6.52094C0.339555 9.44323 -0.166761 11.9834 0.0403687 13.0474C0.784501 16.8239 6.11617 19.2816 8.24883 21.1024C8.14143 21.1624 8.0417 21.2148 7.95732 21.2598C6.89098 21.7768 2.82511 23.8524 1.81248 26.0478C0.661757 28.5355 1.99659 30.3189 2.87881 30.5587C5.61752 31.3005 8.43295 29.9667 9.94423 27.7638C11.4555 25.5608 11.2714 22.6984 10.5733 21.3872C10.5656 21.3722 10.5579 21.3572 10.5426 21.3422C10.8188 21.1848 11.1026 21.02 11.3788 20.8626C11.9235 20.5479 12.4605 20.2557 12.9208 20.0159C12.6599 20.7128 12.4681 21.5445 12.3761 22.7434C12.261 24.1521 12.8517 25.9804 13.6265 26.6997C13.9717 27.0144 14.3783 27.0219 14.6392 27.0219C15.5444 27.0219 15.951 26.2876 16.4036 25.4184C16.9559 24.3544 17.4546 23.1181 17.4546 23.1181C17.4546 23.1181 16.8332 26.46 18.5209 26.46C19.1346 26.46 19.756 25.6807 20.0322 25.2835C20.0322 25.291 20.0322 25.291 20.0322 25.291C20.0322 25.291 20.0475 25.2686 20.0782 25.2161C20.1396 25.1187 20.178 25.0588 20.178 25.0588C20.178 25.0588 20.178 25.0513 20.178 25.0438C20.4234 24.6242 20.9758 23.6725 21.7966 22.0915C22.8553 20.0534 23.8756 17.5058 23.8756 17.5058C23.8756 17.5058 23.9677 18.1277 24.2822 19.1617C24.4663 19.7687 24.8499 20.4355 25.1567 21.0799C24.9112 21.4171 24.7578 21.6045 24.7578 21.6045C24.7578 21.6045 24.7578 21.6045 24.7655 21.612C24.566 21.8667 24.3512 22.144 24.1134 22.4137C23.2772 23.3878 22.2799 24.5043 22.1419 24.8265C21.9808 25.2086 22.0191 25.4859 22.326 25.7107C22.5484 25.8755 22.9474 25.898 23.3539 25.8755C24.1057 25.823 24.6351 25.6432 24.8959 25.5308C25.3025 25.3885 25.7781 25.1712 26.2231 24.849C27.0439 24.257 27.5426 23.4103 27.4965 22.2938C27.4735 21.6794 27.2664 21.065 27.0132 20.488C27.0899 20.3831 27.159 20.2782 27.2357 20.1733C28.5322 18.3225 29.5371 16.2919 29.5371 16.2919C29.5371 16.2919 29.6292 16.9138 29.9437 17.9478C30.0972 18.4724 30.4117 19.0418 30.6879 19.5963C29.4681 20.5629 28.7163 21.6869 28.4478 22.4212C27.9645 23.7849 28.3404 24.3994 29.0538 24.5417C29.376 24.6092 29.8363 24.4593 30.1739 24.3169C30.6035 24.1821 31.1098 23.9498 31.5931 23.6051C32.4139 23.0132 33.2041 22.1889 33.1581 21.0725C33.1351 20.5629 32.997 20.0609 32.8052 19.5738C33.8408 19.1542 35.1757 18.9219 36.8787 19.1168C40.5303 19.5364 41.2515 21.7618 41.1134 22.6984C40.9753 23.6351 40.2081 24.1446 39.955 24.302C39.7018 24.4593 39.6174 24.5118 39.6405 24.6242C39.6711 24.789 39.7939 24.7815 40.0087 24.7515C40.3079 24.6991 41.9266 23.9947 41.9956 22.2713C42.1107 20.0684 39.9627 17.6631 36.1653 17.6856ZM7.99568 26.962C6.78358 28.2508 5.09586 28.7378 4.36707 28.3257C3.58458 27.8836 3.89144 25.9804 5.37971 24.6167C6.28494 23.7849 7.451 23.0132 8.22582 22.5411C8.40226 22.4362 8.66309 22.2863 8.97762 22.099C9.03132 22.069 9.06201 22.054 9.06201 22.054C9.12338 22.0166 9.18475 21.9791 9.24612 21.9416C9.7908 23.8898 9.26914 25.6058 7.99568 26.962ZM16.8179 21.1024C16.3959 22.1065 15.5137 24.6766 14.9767 24.5342C14.5164 24.4144 14.2326 22.4662 14.8846 20.5404C15.2145 19.5738 15.9126 18.4199 16.3192 17.9703C16.979 17.251 17.7077 17.0112 17.8842 17.3034C18.1067 17.6856 17.0787 20.473 16.8179 21.1024ZM24.0981 24.5043C23.9216 24.5942 23.7529 24.6541 23.6761 24.6092C23.6224 24.5792 23.7529 24.4593 23.7529 24.4593C23.7529 24.4593 24.6658 23.5002 25.0263 23.0656C25.2335 22.8108 25.4789 22.5111 25.7398 22.1739C25.7398 22.2039 25.7398 22.2414 25.7398 22.2713C25.7398 23.4178 24.6044 24.1896 24.0981 24.5043ZM29.7136 23.2529C29.5832 23.163 29.6062 22.8633 30.0435 21.9267C30.2122 21.5595 30.6111 20.9451 31.2939 20.3531C31.3706 20.5929 31.4243 20.8252 31.4167 21.0425C31.409 22.4886 30.3503 23.0281 29.7136 23.2529Z" fill="#CD6799"/>
</svg>
