<svg width="42" height="42" viewBox="0 0 42 42" fill="none" xmlns="http://www.w3.org/2000/svg">
<path d="M41.8888 24.5738C41.6364 23.8495 40.9751 23.345 40.12 23.2239C39.7167 23.1669 39.2549 23.1912 38.7084 23.2979C37.7559 23.4841 37.0492 23.555 36.5335 23.5687C38.4802 20.455 40.0631 16.9042 40.9743 13.5617C42.4478 8.15695 41.6604 5.69476 40.7403 4.58106C38.3052 1.63323 34.7524 0.0496286 30.4664 0.00117316C28.1799 -0.0253137 26.1727 0.402371 25.1256 0.709931C24.1507 0.546958 23.1025 0.455968 22.0026 0.439141C19.9408 0.40798 18.1191 0.833796 16.5625 1.70895C15.7008 1.43287 14.3177 1.04367 12.7205 0.795312C8.96399 0.211043 5.93635 0.666305 3.72177 2.14848C1.04015 3.94304 -0.202981 7.06101 0.0269296 11.4158C0.0999483 12.7984 0.916311 17.0051 2.2017 20.9947C2.94044 23.2878 3.72819 25.1921 4.54307 26.6551C5.69871 28.7296 6.93526 29.9513 8.32343 30.39C9.10148 30.6356 10.5151 30.8076 12.002 29.6344C12.1905 29.8506 12.4419 30.0655 12.7756 30.2651C13.1994 30.5183 13.7176 30.7252 14.2352 30.8478C16.1003 31.2895 17.8473 31.179 19.3377 30.5599C19.347 30.811 19.354 31.051 19.3599 31.2582C19.3698 31.5942 19.3797 31.9238 19.3927 32.232C19.481 34.3157 19.6306 35.9359 20.074 37.0695C20.0984 37.1319 20.1311 37.2269 20.1656 37.3277C20.3868 37.9693 20.7567 39.0434 21.6977 39.8846C22.6721 40.7561 23.8508 41.0233 24.9303 41.0233C25.4716 41.0233 25.9882 40.9559 26.4413 40.864C28.0562 40.5361 29.8904 40.0365 31.2173 38.2467C32.4717 36.5546 33.0815 34.0061 33.1919 29.9905C33.2062 29.877 33.2194 29.7685 33.232 29.6652L33.2583 29.453L33.5539 29.4776L33.63 29.4825C35.2749 29.5535 37.2862 29.223 38.5214 28.6794C39.4975 28.2504 42.6253 26.6859 41.8888 24.5738" fill="black"/>
<path d="M39.0764 24.9847C34.1855 25.9405 33.8492 24.3717 33.8492 24.3717C39.0131 17.1123 41.1719 7.8975 39.3091 5.64222C34.2268 -0.509753 25.4291 2.39976 25.2823 2.47517L25.2351 2.48327C24.2687 2.29318 23.1874 2.18007 21.9719 2.16122C19.759 2.12694 18.0802 2.7109 16.8063 3.6261C16.8063 3.6261 1.11224 -2.49923 1.84227 11.3297C1.99751 14.2717 6.29312 33.5901 11.4166 27.755C13.2893 25.6213 15.0988 23.8172 15.0988 23.8172C15.9974 24.3828 17.0733 24.6713 18.2011 24.5677L18.2888 24.4973C18.2615 24.7622 18.274 25.0213 18.3238 25.3281C17.0039 26.7252 17.3918 26.9704 14.7533 27.485C12.0833 28.0064 13.6517 28.9343 14.6758 29.1771C15.9173 29.4711 18.7894 29.8877 20.73 27.314L20.6527 27.6077C21.1697 28.0001 21.5328 30.1602 21.472 32.1185C21.4111 34.0767 21.3705 35.4211 21.7779 36.4713C22.1856 37.5214 22.5916 39.8842 26.0603 39.1801C28.9585 38.5916 30.4605 37.0667 30.6696 34.5231C30.8177 32.7148 31.1534 32.9822 31.1744 31.3654L31.4437 30.6C31.754 28.1488 31.493 27.3579 33.2785 27.7258L33.7127 27.7619C35.0267 27.8185 36.7469 27.5615 37.7565 27.117C39.9303 26.1613 41.2196 24.5654 39.0761 24.9847H39.0764" fill="#336791"/>
<path d="M17.7251 12.6451C17.2844 12.587 16.8852 12.6408 16.6833 12.7857C16.5698 12.8672 16.5346 12.9616 16.5251 13.0265C16.4997 13.1987 16.627 13.3891 16.7053 13.4873C16.9267 13.7652 17.25 13.9562 17.57 13.9983C17.6164 14.0045 17.6626 14.0073 17.7085 14.0073C18.2422 14.0073 18.7275 13.6136 18.7702 13.323C18.8237 12.9591 18.266 12.7165 17.7251 12.6453V12.6451ZM32.3262 12.6567C32.2841 12.3714 31.7483 12.2901 31.2398 12.3571C30.732 12.424 30.2396 12.6412 30.2807 12.9271C30.3136 13.1495 30.7374 13.529 31.239 13.529C31.2814 13.529 31.3242 13.5264 31.3673 13.5206C31.7021 13.4767 31.9478 13.2752 32.0646 13.1591C32.2422 12.9821 32.3451 12.7849 32.3262 12.6567" fill="white"/>
<path d="M40.704 24.876C40.5175 24.3417 39.9172 24.1699 38.9199 24.365C35.9589 24.9439 34.8985 24.5429 34.5503 24.3C36.8519 20.9782 38.7453 16.9628 39.7667 13.2164C40.2506 11.4418 40.5178 9.79372 40.5397 8.45036C40.5638 6.97597 40.2987 5.8925 39.7521 5.23064C37.548 2.56247 34.3132 1.13124 30.3975 1.09198C27.7055 1.06331 25.431 1.71598 24.9901 1.89952C24.0616 1.68077 23.0494 1.54646 21.9473 1.52933C19.9265 1.49832 18.1796 1.9567 16.7334 2.89107C16.1052 2.66951 14.4816 2.14149 12.4962 1.83844C9.06361 1.31494 6.33592 1.71162 4.38941 3.01805C2.06679 4.57704 0.994527 7.36377 1.20224 11.3007C1.27213 12.6252 2.06876 16.6998 3.32587 20.6019C4.98063 25.7379 6.77946 28.6454 8.67203 29.2435C8.89356 29.3135 9.14896 29.3624 9.43067 29.3624C10.1211 29.3624 10.9675 29.0676 11.8482 28.0646C12.9224 26.8438 14.0335 25.6526 15.1803 24.4926C15.9243 24.8709 16.7416 25.0821 17.5775 25.1033C17.5792 25.124 17.5813 25.1448 17.5833 25.1653C17.4394 25.3279 17.2985 25.4928 17.1606 25.66C16.5814 26.3566 16.4609 26.5017 14.5964 26.8653C14.0661 26.9691 12.6575 27.2441 12.6368 28.1795C12.6144 29.2016 14.3019 29.6309 14.4941 29.6764C15.1641 29.8353 15.8096 29.9137 16.4252 29.9137C17.9222 29.9137 19.2397 29.4475 20.2926 28.5455C20.2602 32.1892 20.4205 35.7796 20.8823 36.8735C21.2606 37.7691 22.1845 39.9577 25.1029 39.9575C25.5312 39.9575 26.0025 39.9103 26.521 39.805C29.5669 39.1864 30.8897 37.911 31.4013 35.0992C31.6751 33.5964 32.145 30.0081 32.366 28.0833C32.8324 28.2211 33.4328 28.2842 34.0819 28.2841C35.4358 28.2841 36.9979 28.0116 37.9776 27.5808C39.0781 27.0965 41.0641 25.9084 40.704 24.876V24.876ZM33.4504 11.8694C33.4404 12.4376 33.3578 12.9534 33.2703 13.4919C33.1761 14.071 33.0788 14.6698 33.0543 15.3966C33.0301 16.104 33.1233 16.8394 33.2134 17.5506C33.3957 18.9872 33.5827 20.4661 32.8589 21.9254C32.7386 21.7235 32.6316 21.5149 32.5382 21.3007C32.4482 21.0941 32.2529 20.7623 31.9823 20.3029C30.93 18.5149 28.4656 14.3278 29.7271 12.6192C30.1029 12.1107 31.0566 11.5878 33.4504 11.8694V11.8694ZM30.5488 2.2426C34.0573 2.31599 36.8327 3.55947 38.7976 5.93831C40.3047 7.76295 38.6451 16.0654 33.8409 23.2279C33.7925 23.1697 33.744 23.1117 33.6951 23.0539L33.6343 22.9819C34.8758 21.0394 34.633 19.1176 34.4169 17.4137C34.3281 16.7144 34.2443 16.054 34.2656 15.4336C34.2877 14.7761 34.3794 14.212 34.4683 13.6667C34.5773 12.9947 34.6883 12.2994 34.6577 11.4797C34.6806 11.3937 34.6898 11.2921 34.6778 11.1715C34.5997 10.3855 33.6524 8.03296 31.7217 5.90372C30.6655 4.73907 29.1254 3.43576 27.0225 2.55671C27.927 2.37909 29.1639 2.21347 30.5488 2.2426V2.2426ZM10.9162 27.3304C9.94592 28.4357 9.27592 28.2238 9.05555 28.1543C7.61984 27.7006 5.95389 24.8257 4.48513 20.2668C3.2142 16.3221 2.47152 12.3555 2.41264 11.2432C2.22713 7.7254 3.1272 5.2738 5.08802 3.95631C8.27915 1.81242 13.5257 3.09564 15.6338 3.74644C15.6036 3.77479 15.572 3.80128 15.5421 3.83011C12.0825 7.14004 12.1646 12.7952 12.1732 13.1409C12.1728 13.2743 12.1847 13.4631 12.2008 13.7228C12.2603 14.674 12.3712 16.4443 12.0751 18.449C11.8002 20.312 12.4064 22.1354 13.738 23.4518C13.8746 23.5866 14.0183 23.715 14.1683 23.8363C13.5756 24.4377 12.2875 25.7677 10.9162 27.3304V27.3304ZM14.613 22.6573C13.5398 21.5963 13.0523 20.1205 13.2755 18.6079C13.588 16.4902 13.4727 14.6458 13.4107 13.6549C13.402 13.5162 13.3942 13.3947 13.3898 13.2989C13.8952 12.8743 16.2372 11.6855 17.9074 12.0481C18.6695 12.2134 19.134 12.7051 19.327 13.5508C20.3263 17.9294 19.4593 19.7544 18.7626 21.221C18.619 21.5231 18.4834 21.8087 18.3676 22.1041L18.2778 22.3325C18.0505 22.9099 17.839 23.4468 17.708 23.9566C16.567 23.9535 15.457 23.4917 14.613 22.6572V22.6573ZM14.7882 28.5624C14.455 28.4835 14.1554 28.3466 13.9796 28.233C14.1264 28.1675 14.3877 28.0784 14.841 27.9899C17.0343 27.5622 17.3731 27.2603 18.1128 26.3705C18.2824 26.1664 18.4747 25.9352 18.7409 25.6535L18.7412 25.6532C19.1377 25.2325 19.3191 25.3038 19.6481 25.4332C19.9146 25.5375 20.1743 25.8541 20.2796 26.2025C20.3294 26.3671 20.3853 26.6793 20.2023 26.9223C18.657 28.9721 16.4053 28.9458 14.7882 28.5624V28.5624ZM26.2671 38.6822C23.5838 39.2269 22.6338 37.9298 22.0077 36.447C21.6036 35.4898 21.4049 31.173 21.5459 26.4058C21.5477 26.3424 21.5382 26.2812 21.5197 26.2236C21.5033 26.1097 21.4782 25.9971 21.4447 25.8867C21.2352 25.1931 20.7246 24.6128 20.112 24.3723C19.8686 24.2768 19.4219 24.1015 18.8851 24.2316C18.9996 23.7847 19.1981 23.2801 19.4134 22.7337L19.5037 22.5039C19.6053 22.2448 19.7329 21.9763 19.8678 21.6921C20.5968 20.1577 21.5952 18.0561 20.5116 13.3082C20.1057 11.5299 18.7503 10.6614 16.6956 10.8632C15.4638 10.9839 14.3368 11.4548 13.7746 11.7248C13.6538 11.7827 13.5432 11.8388 13.44 11.8933C13.5969 10.1016 14.1896 6.75302 16.4068 4.63437C17.8028 3.30068 19.662 2.64193 21.9273 2.67746C26.3906 2.74663 29.2528 4.91669 30.8681 6.72513C32.2601 8.28334 33.0138 9.85308 33.3146 10.6997C31.0525 10.4818 29.514 10.9048 28.7341 11.9611C27.0374 14.2589 29.6623 18.7187 30.9239 20.8621C31.1553 21.2549 31.3549 21.5944 31.4177 21.7387C31.8286 22.6819 32.3604 23.3117 32.7487 23.7713C32.8678 23.9122 32.9832 24.0488 33.071 24.1682C32.3859 24.3553 31.1553 24.7877 31.2674 26.9488C31.177 28.0332 30.5338 33.1103 30.207 34.9041C29.7756 37.2739 28.8552 38.1565 26.2671 38.6824V38.6822ZM37.4673 26.5394C36.7667 26.8474 35.5943 27.0785 34.4806 27.1282C33.2505 27.1827 32.6242 26.9976 32.4768 26.8837C32.4078 25.5369 32.9368 25.3962 33.4968 25.2473C33.5848 25.2239 33.6706 25.201 33.7535 25.1736C33.805 25.2133 33.8614 25.2527 33.9232 25.2914C34.912 25.9096 36.6754 25.9763 39.1651 25.4894L39.1924 25.4843C38.8566 25.7817 38.282 26.1809 37.4673 26.5394Z" fill="white"/>
</svg>
