<svg width="42" height="42" viewBox="0 0 42 42" fill="none" xmlns="http://www.w3.org/2000/svg">
<path d="M0.399595 14.3055C0.399595 14.3055 -0.623368 13.5775 0.604187 12.6053L3.46422 10.0804C3.46422 10.0804 4.28259 9.23034 5.14785 9.97099L31.5403 29.6992V39.1593C31.5403 39.1593 31.5275 40.6448 29.5966 40.4807L0.399595 14.3055Z" fill="#2489CA"/>
<path d="M7.20219 20.4033L0.399484 26.5095C0.399484 26.5095 -0.299541 27.0229 0.399484 27.9403L3.55788 30.7766C3.55788 30.7766 4.30806 31.572 5.41627 30.6672L12.6282 25.268L7.20219 20.4033Z" fill="#1070B3"/>
<path d="M19.1454 20.4538L31.6213 11.0484L31.5404 1.63874C31.5404 1.63874 31.0076 -0.414886 29.2302 0.654009L12.6283 15.5722L19.1454 20.4538Z" fill="#0877B9"/>
<path d="M29.5967 40.4933C30.3213 41.2255 31.1993 40.9857 31.1993 40.9857L40.9217 36.2556C42.1663 35.4182 41.9916 34.3787 41.9916 34.3787V6.13302C41.9916 4.89159 40.7043 4.46235 40.7043 4.46235L32.2777 0.451898C30.4363 -0.671702 29.2301 0.653894 29.2301 0.653894C29.2301 0.653894 30.7816 -0.448665 31.5403 1.63862V38.9868C31.5403 39.2435 31.4849 39.496 31.3741 39.7232C31.1524 40.1651 30.6708 40.5775 29.5157 40.4049L29.5967 40.4933Z" fill="#3C99D4"/>
</svg>
